# This file uses centimeters as units for non-parametric coordinates.

mtllib mushroom tree.mtl
g default
v 0.762436 0.861772 -0.553942
v 0.291225 0.861772 -0.896297
v -0.291225 0.861772 -0.896297
v -0.762436 0.861772 -0.553942
v -0.942423 0.861772 0.000000
v -0.762436 0.861772 0.553942
v -0.291225 0.861772 0.896297
v 0.291225 0.861772 0.896297
v 0.762436 0.861772 0.553942
v 0.942423 0.861772 -0.000000
v 0.561184 9.973276 -0.407724
v 0.214353 9.973276 -0.659712
v -0.214353 9.973276 -0.659711
v -0.561184 9.973276 -0.407724
v -0.693662 9.973276 0.000000
v -0.561184 9.973276 0.407724
v -0.214353 9.973276 0.659712
v 0.214353 9.973276 0.659712
v 0.561184 9.973276 0.407724
v 0.693662 9.973276 -0.000000
v 0.000000 0.701104 0.000000
v -0.000000 9.714314 -0.000000
v 0.561184 6.750135 -0.407724
v 0.214353 6.750135 -0.659713
v -0.214353 6.750135 -0.659713
v -0.561184 6.750135 -0.407724
v -0.693662 6.750135 0.000000
v -0.561184 6.750135 0.407724
v -0.214353 6.750135 0.659713
v 0.214353 6.750135 0.659713
v 0.561184 6.750135 0.407724
v 0.693661 6.750135 -0.000000
v -0.000000 9.212307 -0.000000
v 4.970168 8.954022 -3.611039
v 1.898435 8.954022 -5.842783
v -1.898436 8.954022 -5.842782
v -4.970168 8.954022 -3.611038
v -6.143465 8.954022 0.000000
v -4.970168 8.954022 3.611038
v -1.898435 8.954022 5.842782
v 1.898435 8.954022 5.842782
v 4.970167 8.954022 3.611038
v 6.143464 8.954022 0.000000
v 4.227877 10.676442 -3.071733
v 1.614905 10.676442 -4.970168
v -1.614906 10.676442 -4.970168
v -4.227878 10.676442 -3.071732
v -5.225944 10.676442 0.000000
v -4.227877 10.676442 3.071733
v -1.614905 10.676442 4.970168
v 1.614905 10.676442 4.970167
v 4.227877 10.676442 3.071732
v 5.225943 10.676442 0.000000
v 3.071732 11.839993 -2.231745
v 1.173297 11.839993 -3.611038
v -1.173298 11.839993 -3.611038
v -3.071733 11.839993 -2.231744
v -3.796870 11.839993 0.000000
v -3.071732 11.839993 2.231744
v -1.173297 11.839993 3.611038
v 1.173297 11.839993 3.611038
v 3.071732 11.839993 2.231744
v 3.796870 11.839993 0.000000
v 1.614905 12.587038 -1.173298
v 0.616839 12.587038 -1.898435
v -0.616839 12.587038 -1.898435
v -1.614905 12.587038 -1.173297
v -1.996133 12.587038 0.000000
v -1.614905 12.587038 1.173298
v -0.616839 12.587038 1.898435
v 0.616839 12.587038 1.898435
v 1.614905 12.587038 1.173297
v 1.996133 12.587038 0.000000
v 0.000000 12.844452 0.000000
vt 0.626409 0.064409
vt 0.548284 0.007647
vt 0.451716 0.007647
vt 0.373591 0.064409
vt 0.343750 0.156250
vt 0.373591 0.248091
vt 0.451716 0.304853
vt 0.548284 0.304853
vt 0.626409 0.248091
vt 0.656250 0.156250
vt 0.375000 0.312500
vt 0.400000 0.312500
vt 0.425000 0.312500
vt 0.450000 0.312500
vt 0.475000 0.312500
vt 0.500000 0.312500
vt 0.525000 0.312500
vt 0.550000 0.312500
vt 0.575000 0.312500
vt 0.600000 0.312500
vt 0.625000 0.312500
vt 0.375000 0.688440
vt 0.400000 0.688440
vt 0.425000 0.688440
vt 0.450000 0.688440
vt 0.475000 0.688440
vt 0.500000 0.688440
vt 0.525000 0.688440
vt 0.550000 0.688440
vt 0.575000 0.688440
vt 0.600000 0.688440
vt 0.625000 0.688440
vt 0.626409 0.751909
vt 0.548284 0.695147
vt 0.451716 0.695147
vt 0.373591 0.751909
vt 0.343750 0.843750
vt 0.373591 0.935591
vt 0.451716 0.992353
vt 0.548284 0.992353
vt 0.626409 0.935591
vt 0.656250 0.843750
vt 0.500000 0.150000
vt 0.500000 0.837500
vt 0.625000 0.601892
vt 0.375000 0.601892
vt 0.400000 0.601892
vt 0.425000 0.601892
vt 0.450000 0.601892
vt 0.475000 0.601892
vt 0.500000 0.601892
vt 0.525000 0.601892
vt 0.550000 0.601892
vt 0.575000 0.601892
vt 0.600000 0.601892
vt 0.500000 0.500000
vt 0.100000 0.600000
vt 0.000000 0.600000
vt 0.200000 0.600000
vt 0.300000 0.600000
vt 0.400000 0.600000
vt 0.500000 0.600000
vt 0.600000 0.600000
vt 0.700000 0.600000
vt 0.800000 0.600000
vt 0.900000 0.600000
vt 1.000000 0.600000
vt 0.100000 0.700000
vt 0.000000 0.700000
vt 0.200000 0.700000
vt 0.300000 0.700000
vt 0.400000 0.700000
vt 0.500000 0.700000
vt 0.600000 0.700000
vt 0.700000 0.700000
vt 0.800000 0.700000
vt 0.900000 0.700000
vt 1.000000 0.700000
vt 0.100000 0.800000
vt 0.000000 0.800000
vt 0.200000 0.800000
vt 0.300000 0.800000
vt 0.400000 0.800000
vt 0.500000 0.800000
vt 0.600000 0.800000
vt 0.700000 0.800000
vt 0.800000 0.800000
vt 0.900000 0.800000
vt 1.000000 0.800000
vt 0.100000 0.900000
vt 0.000000 0.900000
vt 0.200000 0.900000
vt 0.300000 0.900000
vt 0.400000 0.900000
vt 0.500000 0.900000
vt 0.600000 0.900000
vt 0.700000 0.900000
vt 0.800000 0.900000
vt 0.900000 0.900000
vt 1.000000 0.900000
vt 0.050000 1.000000
vt 0.150000 1.000000
vt 0.250000 1.000000
vt 0.350000 1.000000
vt 0.450000 1.000000
vt 0.550000 1.000000
vt 0.650000 1.000000
vt 0.750000 1.000000
vt 0.850000 1.000000
vt 0.950000 1.000000
vn 0.587564 0.027503 -0.808710
vn 0.587564 0.027503 -0.808710
vn 0.587786 0.000000 -0.809016
vn 0.587786 0.000000 -0.809016
vn -0.000000 0.027503 -0.999622
vn -0.000000 0.027503 -0.999622
vn -0.000001 0.000000 -1.000000
vn -0.000001 0.000000 -1.000000
vn -0.587564 0.027503 -0.808710
vn -0.587564 0.027503 -0.808710
vn -0.587786 0.000000 -0.809016
vn -0.587786 0.000000 -0.809016
vn -0.950697 0.027503 -0.308900
vn -0.950697 0.027503 -0.308900
vn -0.951057 -0.000000 -0.309017
vn -0.951057 -0.000000 -0.309017
vn -0.950697 0.027503 0.308900
vn -0.950697 0.027503 0.308900
vn -0.951057 -0.000000 0.309017
vn -0.951057 -0.000000 0.309017
vn -0.587564 0.027503 0.808710
vn -0.587564 0.027503 0.808710
vn -0.587786 0.000000 0.809016
vn -0.587786 0.000000 0.809016
vn 0.000000 0.027503 0.999622
vn 0.000000 0.027503 0.999622
vn 0.000000 0.000000 1.000000
vn 0.000000 0.000000 1.000000
vn 0.587564 0.027503 0.808710
vn 0.587564 0.027503 0.808710
vn 0.587786 0.000000 0.809016
vn 0.587786 0.000000 0.809016
vn 0.950697 0.027503 0.308900
vn 0.950697 0.027503 0.308900
vn 0.951057 -0.000000 0.309017
vn 0.951057 -0.000000 0.309017
vn 0.950697 0.027503 -0.308900
vn 0.950697 0.027503 -0.308900
vn 0.951057 -0.000000 -0.309017
vn 0.951057 -0.000000 -0.309017
vn 0.051933 -0.985777 -0.159834
vn 0.135963 -0.985777 -0.098783
vn 0.000000 -1.000000 0.000000
vn -0.051933 -0.985777 -0.159834
vn -0.135963 -0.985777 -0.098783
vn -0.168059 -0.985777 0.000000
vn -0.135963 -0.985777 0.098783
vn -0.051933 -0.985777 0.159834
vn 0.051933 -0.985777 0.159834
vn 0.135963 -0.985777 0.098783
vn 0.168059 -0.985777 -0.000000
vn -0.282952 0.936844 0.205577
vn -0.108078 0.936844 0.332629
vn -0.000000 1.000000 -0.000000
vn 0.108078 0.936845 0.332627
vn 0.282952 0.936844 0.205574
vn 0.349748 0.936844 0.000000
vn 0.282952 0.936844 -0.205575
vn 0.108078 0.936845 -0.332628
vn -0.108078 0.936844 -0.332629
vn -0.282952 0.936844 -0.205576
vn -0.349748 0.936844 0.000000
vn 0.587312 0.040146 -0.808364
vn 0.587312 0.040146 -0.808364
vn -0.000000 0.040146 -0.999194
vn -0.000000 0.040146 -0.999194
vn -0.587312 0.040146 -0.808364
vn -0.587312 0.040146 -0.808364
vn -0.950290 0.040146 -0.308768
vn -0.950290 0.040146 -0.308768
vn -0.950290 0.040146 0.308768
vn -0.950290 0.040146 0.308768
vn -0.587312 0.040146 0.808364
vn -0.587312 0.040146 0.808364
vn 0.000000 0.040146 0.999194
vn 0.000000 0.040146 0.999194
vn 0.587312 0.040146 0.808364
vn 0.587312 0.040146 0.808364
vn 0.950290 0.040146 0.308768
vn 0.950290 0.040146 0.308768
vn 0.950290 0.040146 -0.308768
vn 0.950290 0.040146 -0.308768
vn -0.025958 -0.999024 0.035728
vn -0.025958 -0.999024 0.035728
vn -0.025958 -0.999024 0.035728
vn 0.000000 -0.999024 0.044163
vn 0.000000 -0.999024 0.044163
vn 0.000000 -0.999024 0.044163
vn 0.025958 -0.999024 0.035728
vn 0.025958 -0.999024 0.035728
vn 0.025958 -0.999024 0.035728
vn 0.042001 -0.999024 0.013647
vn 0.042001 -0.999024 0.013647
vn 0.042001 -0.999024 0.013647
vn 0.042001 -0.999024 -0.013647
vn 0.042001 -0.999024 -0.013647
vn 0.042001 -0.999024 -0.013647
vn 0.025958 -0.999024 -0.035728
vn 0.025958 -0.999024 -0.035728
vn 0.025958 -0.999024 -0.035728
vn 0.000000 -0.999024 -0.044163
vn 0.000000 -0.999024 -0.044163
vn 0.000000 -0.999024 -0.044163
vn -0.025958 -0.999024 -0.035728
vn -0.025958 -0.999024 -0.035728
vn -0.025958 -0.999024 -0.035728
vn -0.042001 -0.999024 -0.013647
vn -0.042001 -0.999024 -0.013647
vn -0.042001 -0.999024 -0.013647
vn -0.042001 -0.999024 0.013647
vn -0.042001 -0.999024 0.013647
vn -0.042001 -0.999024 0.013647
vn 0.524335 0.451933 -0.721685
vn 0.524335 0.451933 -0.721685
vn 0.524335 0.451933 -0.721685
vn 0.524335 0.451933 -0.721685
vn -0.000000 0.451933 -0.892052
vn -0.000000 0.451933 -0.892052
vn -0.000000 0.451933 -0.892052
vn -0.000000 0.451933 -0.892052
vn -0.524335 0.451933 -0.721685
vn -0.524335 0.451933 -0.721685
vn -0.524335 0.451933 -0.721685
vn -0.524335 0.451933 -0.721685
vn -0.848392 0.451933 -0.275659
vn -0.848392 0.451933 -0.275659
vn -0.848392 0.451933 -0.275659
vn -0.848392 0.451933 -0.275659
vn -0.848392 0.451933 0.275659
vn -0.848392 0.451933 0.275659
vn -0.848392 0.451933 0.275659
vn -0.848392 0.451933 0.275659
vn -0.524335 0.451933 0.721685
vn -0.524335 0.451933 0.721685
vn -0.524335 0.451933 0.721685
vn -0.524335 0.451933 0.721685
vn 0.000000 0.451933 0.892052
vn 0.000000 0.451933 0.892052
vn 0.000000 0.451933 0.892052
vn 0.000000 0.451933 0.892052
vn 0.524335 0.451933 0.721685
vn 0.524335 0.451933 0.721685
vn 0.524335 0.451933 0.721685
vn 0.524335 0.451933 0.721685
vn 0.848392 0.451933 0.275659
vn 0.848392 0.451933 0.275659
vn 0.848392 0.451933 0.275659
vn 0.848392 0.451933 0.275659
vn 0.848392 0.451933 -0.275659
vn 0.848392 0.451933 -0.275659
vn 0.848392 0.451933 -0.275659
vn 0.848392 0.451933 -0.275659
vn 0.382257 0.759648 -0.526132
vn 0.382257 0.759648 -0.526132
vn 0.382257 0.759648 -0.526132
vn 0.382257 0.759648 -0.526132
vn -0.000000 0.759648 -0.650334
vn -0.000000 0.759648 -0.650334
vn -0.000000 0.759648 -0.650334
vn -0.000000 0.759648 -0.650334
vn -0.382257 0.759648 -0.526132
vn -0.382257 0.759648 -0.526132
vn -0.382257 0.759648 -0.526132
vn -0.382257 0.759648 -0.526132
vn -0.618505 0.759648 -0.200964
vn -0.618505 0.759648 -0.200964
vn -0.618505 0.759648 -0.200964
vn -0.618505 0.759648 -0.200964
vn -0.618505 0.759648 0.200964
vn -0.618505 0.759648 0.200964
vn -0.618505 0.759648 0.200964
vn -0.618505 0.759648 0.200964
vn -0.382257 0.759648 0.526132
vn -0.382257 0.759648 0.526131
vn -0.382257 0.759648 0.526132
vn -0.382257 0.759648 0.526132
vn 0.000000 0.759648 0.650334
vn 0.000000 0.759648 0.650334
vn 0.000000 0.759648 0.650334
vn 0.000000 0.759648 0.650334
vn 0.382257 0.759648 0.526131
vn 0.382257 0.759648 0.526131
vn 0.382257 0.759648 0.526131
vn 0.382257 0.759648 0.526131
vn 0.618505 0.759648 0.200964
vn 0.618505 0.759648 0.200964
vn 0.618505 0.759648 0.200965
vn 0.618505 0.759648 0.200965
vn 0.618505 0.759648 -0.200964
vn 0.618505 0.759648 -0.200964
vn 0.618505 0.759648 -0.200964
vn 0.618505 0.759648 -0.200964
vn 0.235009 0.916593 -0.323463
vn 0.235010 0.916593 -0.323463
vn 0.235009 0.916593 -0.323463
vn 0.235009 0.916593 -0.323463
vn -0.000000 0.916592 -0.399823
vn -0.000000 0.916592 -0.399823
vn -0.000000 0.916592 -0.399823
vn -0.000000 0.916592 -0.399823
vn -0.235010 0.916593 -0.323463
vn -0.235010 0.916593 -0.323463
vn -0.235010 0.916593 -0.323463
vn -0.235010 0.916593 -0.323463
vn -0.380253 0.916593 -0.123552
vn -0.380253 0.916593 -0.123552
vn -0.380253 0.916593 -0.123552
vn -0.380253 0.916593 -0.123552
vn -0.380253 0.916593 0.123552
vn -0.380253 0.916593 0.123552
vn -0.380253 0.916593 0.123552
vn -0.380253 0.916593 0.123552
vn -0.235009 0.916593 0.323463
vn -0.235009 0.916593 0.323463
vn -0.235009 0.916593 0.323463
vn -0.235009 0.916593 0.323463
vn 0.000000 0.916593 0.399822
vn 0.000000 0.916593 0.399822
vn 0.000000 0.916593 0.399822
vn 0.000000 0.916593 0.399822
vn 0.235010 0.916593 0.323463
vn 0.235010 0.916593 0.323463
vn 0.235010 0.916593 0.323463
vn 0.235010 0.916593 0.323463
vn 0.380253 0.916593 0.123552
vn 0.380253 0.916593 0.123552
vn 0.380253 0.916593 0.123552
vn 0.380253 0.916593 0.123552
vn 0.380254 0.916593 -0.123552
vn 0.380254 0.916593 -0.123552
vn 0.380254 0.916593 -0.123552
vn 0.380254 0.916593 -0.123552
vn 0.078977 0.990932 -0.108704
vn 0.078977 0.990932 -0.108704
vn 0.078977 0.990932 -0.108704
vn -0.000000 0.990932 -0.134363
vn -0.000000 0.990932 -0.134363
vn -0.000000 0.990932 -0.134363
vn -0.078977 0.990932 -0.108703
vn -0.078977 0.990932 -0.108703
vn -0.078977 0.990932 -0.108703
vn -0.127787 0.990932 -0.041520
vn -0.127787 0.990932 -0.041520
vn -0.127787 0.990932 -0.041520
vn -0.127787 0.990932 0.041520
vn -0.127787 0.990932 0.041520
vn -0.127787 0.990932 0.041520
vn -0.078977 0.990932 0.108704
vn -0.078977 0.990932 0.108704
vn -0.078977 0.990932 0.108704
vn 0.000000 0.990932 0.134363
vn 0.000000 0.990932 0.134363
vn 0.000000 0.990932 0.134363
vn 0.078977 0.990932 0.108702
vn 0.078977 0.990932 0.108702
vn 0.078977 0.990932 0.108702
vn 0.127787 0.990932 0.041520
vn 0.127787 0.990932 0.041520
vn 0.127787 0.990932 0.041520
vn 0.127787 0.990932 -0.041519
vn 0.127787 0.990932 -0.041519
vn 0.127787 0.990932 -0.041519
s 1
g pCylinder2
usemtl initialShadingGroup
f 23/46/1 24/47/2 12/23/3 11/22/4
s 2
f 24/47/5 25/48/6 13/24/7 12/23/8
s 3
f 25/48/9 26/49/10 14/25/11 13/24/12
s 4
f 26/49/13 27/50/14 15/26/15 14/25/16
s 5
f 27/50/17 28/51/18 16/27/19 15/26/20
s 6
f 28/51/21 29/52/22 17/28/23 16/27/24
s 7
f 29/52/25 30/53/26 18/29/27 17/28/28
s 8
f 30/53/29 31/54/30 19/30/31 18/29/32
s 9
f 31/54/33 32/55/34 20/31/35 19/30/36
s 10
f 32/55/37 23/45/38 11/32/39 20/31/40
s 11
f 2/2/41 1/1/42 21/43/43
f 3/3/44 2/2/41 21/43/43
f 4/4/45 3/3/44 21/43/43
f 5/5/46 4/4/45 21/43/43
f 6/6/47 5/5/46 21/43/43
f 7/7/48 6/6/47 21/43/43
f 8/8/49 7/7/48 21/43/43
f 9/9/50 8/8/49 21/43/43
f 10/10/51 9/9/50 21/43/43
f 1/1/42 10/10/51 21/43/43
s 12
f 11/41/52 12/40/53 22/44/54
f 12/40/53 13/39/55 22/44/54
f 13/39/55 14/38/56 22/44/54
f 14/38/56 15/37/57 22/44/54
f 15/37/57 16/36/58 22/44/54
f 16/36/58 17/35/59 22/44/54
f 17/35/59 18/34/60 22/44/54
f 18/34/60 19/33/61 22/44/54
f 19/33/61 20/42/62 22/44/54
f 20/42/62 11/41/52 22/44/54
s 1
f 1/11/63 2/12/64 24/47/2 23/46/1
s 2
f 2/12/65 3/13/66 25/48/6 24/47/5
s 3
f 3/13/67 4/14/68 26/49/10 25/48/9
s 4
f 4/14/69 5/15/70 27/50/14 26/49/13
s 5
f 5/15/71 6/16/72 28/51/18 27/50/17
s 6
f 6/16/73 7/17/74 29/52/22 28/51/21
s 7
f 7/17/75 8/18/76 30/53/26 29/52/25
s 8
f 8/18/77 9/19/78 31/54/30 30/53/29
s 9
f 9/19/79 10/20/80 32/55/34 31/54/33
s 10
f 10/20/81 1/21/82 23/45/38 32/55/37
s off
f 33/56/83 35/57/84 34/58/85
f 33/56/86 36/59/87 35/57/88
f 33/56/89 37/60/90 36/59/91
f 33/56/92 38/61/93 37/60/94
f 33/56/95 39/62/96 38/61/97
f 33/56/98 40/63/99 39/62/100
f 33/56/101 41/64/102 40/63/103
f 33/56/104 42/65/105 41/64/106
f 33/56/107 43/66/108 42/65/109
f 33/56/110 34/67/111 43/66/112
f 34/58/113 35/57/114 45/68/115 44/69/116
f 35/57/117 36/59/118 46/70/119 45/68/120
f 36/59/121 37/60/122 47/71/123 46/70/124
f 37/60/125 38/61/126 48/72/127 47/71/128
f 38/61/129 39/62/130 49/73/131 48/72/132
f 39/62/133 40/63/134 50/74/135 49/73/136
f 40/63/137 41/64/138 51/75/139 50/74/140
f 41/64/141 42/65/142 52/76/143 51/75/144
f 42/65/145 43/66/146 53/77/147 52/76/148
f 43/66/149 34/67/150 44/78/151 53/77/152
f 44/69/153 45/68/154 55/79/155 54/80/156
f 45/68/157 46/70/158 56/81/159 55/79/160
f 46/70/161 47/71/162 57/82/163 56/81/164
f 47/71/165 48/72/166 58/83/167 57/82/168
f 48/72/169 49/73/170 59/84/171 58/83/172
f 49/73/173 50/74/174 60/85/175 59/84/176
f 50/74/177 51/75/178 61/86/179 60/85/180
f 51/75/181 52/76/182 62/87/183 61/86/184
f 52/76/185 53/77/186 63/88/187 62/87/188
f 53/77/189 44/78/190 54/89/191 63/88/192
f 54/80/193 55/79/194 65/90/195 64/91/196
f 55/79/197 56/81/198 66/92/199 65/90/200
f 56/81/201 57/82/202 67/93/203 66/92/204
f 57/82/205 58/83/206 68/94/207 67/93/208
f 58/83/209 59/84/210 69/95/211 68/94/212
f 59/84/213 60/85/214 70/96/215 69/95/216
f 60/85/217 61/86/218 71/97/219 70/96/220
f 61/86/221 62/87/222 72/98/223 71/97/224
f 62/87/225 63/88/226 73/99/227 72/98/228
f 63/88/229 54/89/230 64/100/231 73/99/232
f 64/91/233 65/90/234 74/101/235
f 65/90/236 66/92/237 74/102/238
f 66/92/239 67/93/240 74/103/241
f 67/93/242 68/94/243 74/104/244
f 68/94/245 69/95/246 74/105/247
f 69/95/248 70/96/249 74/106/250
f 70/96/251 71/97/252 74/107/253
f 71/97/254 72/98/255 74/108/256
f 72/98/257 73/99/258 74/109/259
f 73/99/260 64/100/261 74/110/262
